<?xml version="1.0" encoding="UTF-8" standalone="no"?>
<!-- Created with Inkscape (http://www.inkscape.org/) -->

<svg
   xmlns:dc="http://purl.org/dc/elements/1.1/"
   xmlns:cc="http://creativecommons.org/ns#"
   xmlns:rdf="http://www.w3.org/1999/02/22-rdf-syntax-ns#"
   xmlns:svg="http://www.w3.org/2000/svg"
   xmlns="http://www.w3.org/2000/svg"
   xmlns:sodipodi="http://sodipodi.sourceforge.net/DTD/sodipodi-0.dtd"
   xmlns:inkscape="http://www.inkscape.org/namespaces/inkscape"
   width="744.09448819"
   height="1052.3622047"
   id="svg2"
   version="1.1"
   inkscape:version="0.48+devel r9772"
   sodipodi:docname="onde.svg">
  <defs
     id="defs4" />
  <sodipodi:namedview
     id="base"
     pagecolor="#ffffff"
     bordercolor="#666666"
     borderopacity="1.0"
     inkscape:pageopacity="0.0"
     inkscape:pageshadow="2"
     inkscape:zoom="0.66136926"
     inkscape:cx="372.04724"
     inkscape:cy="526.18109"
     inkscape:document-units="px"
     inkscape:current-layer="layer1"
     showgrid="false"
     showguides="true"
     inkscape:guide-bbox="true"
     inkscape:window-width="1440"
     inkscape:window-height="851"
     inkscape:window-x="0"
     inkscape:window-y="1"
     inkscape:window-maximized="1" />
  <metadata
     id="metadata7">
    <rdf:RDF>
      <cc:Work
         rdf:about="">
        <dc:format>image/svg+xml</dc:format>
        <dc:type
           rdf:resource="http://purl.org/dc/dcmitype/StillImage" />
        <dc:title></dc:title>
      </cc:Work>
    </rdf:RDF>
  </metadata>
  <g
     inkscape:label="Layer 1"
     inkscape:groupmode="layer"
     id="layer1">
    <g
       id="g4194">
      <rect
         y="7.7459569"
         x="8.5416584"
         height="620.60059"
         width="732.35846"
         id="rect4150"
         style="color:#000000;fill:#fefff9;fill-opacity:1;stroke:#ffffff;stroke-width:5;stroke-linecap:butt;stroke-linejoin:miter;stroke-miterlimit:4;stroke-opacity:1;stroke-dasharray:none;stroke-dashoffset:0;marker:none;visibility:visible;display:inline;overflow:visible;enable-background:accumulate" />
      <path
         sodipodi:nodetypes="ccccc"
         inkscape:connector-curvature="0"
         id="path4148"
         d="M 8.4923424,82.90013 C 82.802591,87.599763 129.65475,115.75959 156.9735,160.60875 c -22.68206,-4.58708 -39.20435,1.42094 -50.82562,15.8589 C 88.306052,155.40897 67.129151,134.69023 8.4923424,117.78971 z"
         style="color:#000000;fill:#62a6b9;fill-opacity:1;stroke:#ffffff;stroke-width:5;stroke-linecap:butt;stroke-linejoin:miter;stroke-miterlimit:4;stroke-opacity:1;stroke-dasharray:none;stroke-dashoffset:0;marker:none;visibility:visible;display:inline;overflow:visible;enable-background:accumulate" />
      <path
         sodipodi:nodetypes="cccc"
         inkscape:connector-curvature="0"
         id="path4146"
         d="m 297.00326,244.66092 c -4.67287,57.43548 -47.87145,94.75064 -72.60802,138.76539 57.59213,-125.7511 275.39121,-105.9103 200.19071,49.95554 C 531.64294,299.77354 404.92579,257.00082 297.00326,244.66092 z"
         style="color:#000000;fill:#91b2c5;fill-opacity:1;stroke:#ffffff;stroke-width:5;stroke-linecap:butt;stroke-linejoin:miter;stroke-miterlimit:4;stroke-opacity:1;stroke-dasharray:none;stroke-dashoffset:0;marker:none;visibility:visible;display:inline;overflow:visible;enable-background:accumulate" />
      <path
         sodipodi:nodetypes="ccc"
         inkscape:connector-curvature="0"
         id="path4144"
         d="M 90.543458,172.07396 C 359.69954,83.625526 374.15242,319.36079 52.874219,486.47973 106.04212,391.17395 132.30432,145.74412 90.543458,172.07396 z"
         style="color:#000000;fill:#97bcc5;fill-opacity:1;stroke:#ffffff;stroke-width:5;stroke-linecap:butt;stroke-linejoin:miter;stroke-miterlimit:4;stroke-opacity:1;stroke-dasharray:none;stroke-dashoffset:0;marker:none;visibility:visible;display:inline;overflow:visible;enable-background:accumulate" />
      <path
         style="color:#000000;fill:#58abb9;fill-opacity:1;stroke:#ffffff;stroke-width:5;stroke-linecap:butt;stroke-linejoin:miter;stroke-miterlimit:4;stroke-opacity:1;stroke-dasharray:none;stroke-dashoffset:0;marker:none;visibility:visible;display:inline;overflow:visible;enable-background:accumulate"
         d="M 131.78753,198.56578 C 343.27197,176.52328 201.60847,370.4227 223.67223,454.224 199.36746,546.25171 142.2591,188.18587 131.78753,198.56578 z"
         id="path4142"
         inkscape:connector-curvature="0"
         sodipodi:nodetypes="ccc" />
      <path
         sodipodi:nodetypes="cccccc"
         inkscape:connector-curvature="0"
         id="path3323"
         d="m 8.4923424,1050.7 0,-260.69283 C 205.16919,782.93659 411.3528,795.29116 554.64902,714.76702 c 57.70149,38.98102 119.48662,65.47483 188.32988,70.38594 l 0,265.54704 z"
         style="color:#000000;fill:#6e9bba;fill-opacity:1;stroke:#ffffff;stroke-width:5;stroke-linecap:butt;stroke-linejoin:miter;stroke-miterlimit:4;stroke-opacity:1;stroke-dasharray:none;stroke-dashoffset:0;marker:none;visibility:visible;display:inline;overflow:visible;enable-background:accumulate" />
      <path
         sodipodi:nodetypes="cccc"
         inkscape:connector-curvature="0"
         id="path4099"
         d="m 8.4923424,265.27749 0,104.66875 C 83.879983,398.50196 129.98043,452.99119 197.42654,541.22238 148.89302,450.54835 155.38034,306.162 8.4923424,265.27749 z"
         style="color:#000000;fill:#58abb9;fill-opacity:1;stroke:#ffffff;stroke-width:5;stroke-linecap:butt;stroke-linejoin:miter;stroke-miterlimit:4;stroke-opacity:1;stroke-dasharray:none;stroke-dashoffset:0;marker:none;visibility:visible;display:inline;overflow:visible;enable-background:accumulate" />
      <path
         sodipodi:nodetypes="cccc"
         inkscape:connector-curvature="0"
         id="path4097"
         d="M 8.4923424,521.39875 C 162.34245,537.78871 188.07264,589.39628 298.04052,645.09819 157.78957,541.80926 148.7919,425.52562 8.4923424,370.73919 z"
         style="color:#000000;fill:#99bbc7;fill-opacity:1;stroke:#ffffff;stroke-width:5;stroke-linecap:butt;stroke-linejoin:miter;stroke-miterlimit:4;stroke-opacity:1;stroke-dasharray:none;stroke-dashoffset:0;marker:none;visibility:visible;display:inline;overflow:visible;enable-background:accumulate" />
      <path
         sodipodi:nodetypes="ccccccc"
         inkscape:connector-curvature="0"
         id="path4095"
         d="M 8.4923424,520.6058 C 266.66752,543.65177 252.89365,765.9089 668.34146,622.10278 c 24.87916,14.36095 49.75829,27.76118 74.63744,31.7178 l 0,132.42183 C 662.77935,789.58101 582.57981,733.60055 502.38026,686.33133 339.44917,729.7936 174.15409,682.89743 8.4923424,621.98555 z"
         style="color:#000000;fill:#58abb9;fill-opacity:1;stroke:#ffffff;stroke-width:5;stroke-linecap:butt;stroke-linejoin:miter;stroke-miterlimit:4;stroke-opacity:1;stroke-dasharray:none;stroke-dashoffset:0;marker:none;visibility:visible;display:inline;overflow:visible;enable-background:accumulate" />
      <path
         sodipodi:nodetypes="cccc"
         inkscape:connector-curvature="0"
         id="path4093"
         d="M 8.4923424,621.98555 C 278.9727,730.06628 493.9287,720.51002 667.64696,623.58524 562.55835,755.70554 345.91828,812.70089 8.4923424,788.35232 z"
         style="color:#000000;fill:#9abac7;fill-opacity:1;stroke:#ffffff;stroke-width:5;stroke-linecap:butt;stroke-linejoin:miter;stroke-miterlimit:4;stroke-opacity:1;stroke-dasharray:none;stroke-dashoffset:0;marker:none;visibility:visible;display:inline;overflow:visible;enable-background:accumulate" />
      <path
         sodipodi:nodetypes="cccccc"
         inkscape:connector-curvature="0"
         id="path4101"
         d="M 742.9789,654.61353 C 717.754,652.62718 692.52911,636.15302 667.30421,619.72394 293.88094,769.68805 187.496,567.81004 159.04801,433.38185 c 77.7701,184.5802 237.99936,248.48958 509.29345,149.86662 l 74.63744,41.23314 z"
         style="color:#000000;fill:#7eabc2;fill-opacity:1;stroke:#ffffff;stroke-width:5;stroke-linecap:butt;stroke-linejoin:miter;stroke-miterlimit:4;stroke-opacity:1;stroke-dasharray:none;stroke-dashoffset:0;marker:none;visibility:visible;display:inline;overflow:visible;enable-background:accumulate" />
      <path
         sodipodi:nodetypes="cccc"
         inkscape:connector-curvature="0"
         id="path4124"
         d="M 8.4923424,266.07044 C 176.76159,326.51104 136.13052,449.74902 217.13443,526.15642 157.37681,434.80412 208.88542,265.36644 8.4923424,181.22532 z"
         style="color:#000000;fill:#97bcc5;fill-opacity:1;stroke:#ffffff;stroke-width:5;stroke-linecap:butt;stroke-linejoin:miter;stroke-miterlimit:4;stroke-opacity:1;stroke-dasharray:none;stroke-dashoffset:0;marker:none;visibility:visible;display:inline;overflow:visible;enable-background:accumulate" />
      <path
         sodipodi:nodetypes="cccc"
         inkscape:connector-curvature="0"
         id="path4138"
         d="M 494.0822,551.53067 C 337.62793,574.62502 244.76099,473.09538 332.27002,386.59809 c -70.92357,31.89613 -68.48727,83.07008 -51.86288,137.97244 60.65181,65.56653 136.74768,48.48809 213.67506,26.96014 z"
         style="color:#000000;fill:#63aabc;fill-opacity:1;stroke:#ffffff;stroke-width:5;stroke-linecap:butt;stroke-linejoin:miter;stroke-miterlimit:4;stroke-opacity:1;stroke-dasharray:none;stroke-dashoffset:0;marker:none;visibility:visible;display:inline;overflow:visible;enable-background:accumulate" />
      <path
         sodipodi:nodetypes="cccccc"
         inkscape:connector-curvature="0"
         id="path4122"
         d="m 740.94949,621.30983 c -27.51255,-8.1552 -49.43645,-24.85501 -71.57077,-41.23314 -251.2653,97.21257 -379.46936,37.42664 -459.50509,-60.26383 102.25338,88.32801 255.49423,140.51535 455.35606,-14.27301 23.85619,14.80443 49.09759,24.31419 75.7198,28.54603 z"
         style="color:#000000;fill:#9abac7;fill-opacity:1;stroke:#ffffff;stroke-width:5;stroke-linecap:butt;stroke-linejoin:miter;stroke-miterlimit:4;stroke-opacity:1;stroke-dasharray:none;stroke-dashoffset:0;marker:none;visibility:visible;display:inline;overflow:visible;enable-background:accumulate" />
      <path
         sodipodi:nodetypes="ccc"
         inkscape:connector-curvature="0"
         id="path4140"
         d="m 155.93624,230.38791 c 107.32483,-26.17043 37.29221,125.43512 51.86288,191.8927 -4.41748,-92.76683 -45.95238,-199.85657 -51.86288,-191.8927 z"
         style="color:#000000;fill:#91b2c5;fill-opacity:1;stroke:#ffffff;stroke-width:5;stroke-linecap:butt;stroke-linejoin:miter;stroke-miterlimit:4;stroke-opacity:1;stroke-dasharray:none;stroke-dashoffset:0;marker:none;visibility:visible;display:inline;overflow:visible;enable-background:accumulate" />
      <path
         sodipodi:nodetypes="cccc"
         inkscape:connector-curvature="0"
         id="path4126"
         d="M 8.4923424,181.22532 C 236.06835,268.62054 143.53971,534.23579 260.69925,557.08128 149.96738,492.88184 292.44325,218.72444 8.4923424,115.41088 z"
         style="color:#000000;fill:#91b2c5;fill-opacity:1;stroke:#ffffff;stroke-width:5;stroke-linecap:butt;stroke-linejoin:miter;stroke-miterlimit:4;stroke-opacity:1;stroke-dasharray:none;stroke-dashoffset:0;marker:none;visibility:visible;display:inline;overflow:visible;enable-background:accumulate" />
      <path
         sodipodi:nodetypes="cccc"
         inkscape:connector-curvature="0"
         id="path4130"
         d="m 665.22969,509.50457 c -30.17399,-9.87606 -50.72221,-23.4314 -64.30996,-39.64725 -81.68509,100.18122 -203.90802,127.1234 -299.76744,75.32979 43.05402,40.43165 185.42518,94.06046 364.0774,-35.68254 z"
         style="color:#000000;fill:#7aa9c7;fill-opacity:1;stroke:#ffffff;stroke-width:5;stroke-linecap:butt;stroke-linejoin:miter;stroke-miterlimit:4;stroke-opacity:1;stroke-dasharray:none;stroke-dashoffset:0;marker:none;visibility:visible;display:inline;overflow:visible;enable-background:accumulate" />
      <path
         sodipodi:nodetypes="cccc"
         inkscape:connector-curvature="0"
         id="path4132"
         d="M 532.49017,581.68488 C 386.19353,607.00998 234.271,570.37992 269.12773,419.07939 c -53.83602,60.20141 -49.87089,114.03702 42.70743,165.77828 84.1894,34.57016 157.54251,15.69102 220.65501,-3.17279 z"
         style="color:#000000;fill:#63aabc;fill-opacity:1;stroke:#ffffff;stroke-width:5;stroke-linecap:butt;stroke-linejoin:miter;stroke-miterlimit:4;stroke-opacity:1;stroke-dasharray:none;stroke-dashoffset:0;marker:none;visibility:visible;display:inline;overflow:visible;enable-background:accumulate" />
      <path
         style="color:#000000;fill:#58abb9;fill-opacity:1;stroke:#ffffff;stroke-width:5;stroke-linecap:butt;stroke-linejoin:miter;stroke-miterlimit:4;stroke-opacity:1;stroke-dasharray:none;stroke-dashoffset:0;marker:none;visibility:visible;display:inline;overflow:visible;enable-background:accumulate"
         d="M 226.97747,507.66629 C 221.58791,419.67006 368.18825,286.26776 429.40521,427.28868 490.67197,282.17055 278.62115,247.7238 225.365,393.85604 c -8.47649,42.17644 -6.82075,77.74064 1.61247,113.81025 z"
         id="path4136"
         inkscape:connector-curvature="0"
         sodipodi:nodetypes="cccc" />
      <path
         sodipodi:nodetypes="cccc"
         inkscape:connector-curvature="0"
         id="path4134"
         d="m 273.14634,492.85272 c -20.0142,-63.72251 83.54849,-175.80409 150.40235,-66.60738 29.13904,-88.90937 -118.25571,-104.30614 -159.73767,-7.92945 -6.60246,27.81608 2.76658,50.74831 9.33532,74.53683 z"
         style="color:#000000;fill:#a0b7c9;fill-opacity:1;stroke:#ffffff;stroke-width:5;stroke-linecap:butt;stroke-linejoin:miter;stroke-miterlimit:4;stroke-opacity:1;stroke-dasharray:none;stroke-dashoffset:0;marker:none;visibility:visible;display:inline;overflow:visible;enable-background:accumulate" />
    </g>
  </g>
</svg>
